<svg width="48" height="48" viewBox="0 0 48 48" fill="none" xmlns="http://www.w3.org/2000/svg">
<path d="M47.9442 5.14732C47.913 3.80339 47.3676 2.52259 46.4204 1.5687C45.4732 0.614802 44.1963 0.0604418 42.8526 0.0197884V0.0120239H5.14723V0.0176706C3.79669 0.0492456 2.51021 0.599825 1.55497 1.55506C0.599737 2.5103 0.0491577 3.79678 0.0175826 5.14732H0.0112305V42.8527H0.0175826C0.0486414 44.2034 0.599056 45.4902 1.5544 46.4456C2.50975 47.4009 3.79652 47.9513 5.14723 47.9824V47.988H42.8526V47.9817C44.2033 47.9506 45.4901 47.4002 46.4455 46.4449C47.4008 45.4895 47.9512 44.2027 47.9823 42.852H47.9886V5.14732H47.9442V5.14732ZM11.9929 40.7125C11.3338 40.7235 10.6791 40.6032 10.067 40.3586C9.4549 40.114 8.89763 39.7499 8.42767 39.2877C7.95772 38.8255 7.58449 38.2743 7.32976 37.6663C7.07503 37.0584 6.94388 36.4058 6.94398 35.7466C6.94407 35.0874 7.0754 34.4349 7.33031 33.827C7.58521 33.2191 7.9586 32.668 8.42868 32.2059C8.89877 31.7438 9.45615 31.38 10.0683 31.1355C10.6805 30.8911 11.3352 30.7709 11.9943 30.7821C13.2966 30.8043 14.5381 31.3372 15.4512 32.2661C16.3643 33.195 16.8759 34.4455 16.8757 35.748C16.8756 37.0505 16.3636 38.3009 15.4503 39.2295C14.5369 40.1581 13.2952 40.6907 11.9929 40.7125V40.7125ZM11.9929 16.9906C11.3338 17.0016 10.6791 16.8813 10.067 16.6367C9.4549 16.3921 8.89763 16.028 8.42767 15.5658C7.95772 15.1036 7.58449 14.5524 7.32976 13.9445C7.07503 13.3365 6.94388 12.6839 6.94398 12.0247C6.94407 11.3655 7.0754 10.713 7.33031 10.1051C7.58521 9.4972 7.9586 8.94614 8.42868 8.48404C8.89877 8.02195 9.45615 7.65807 10.0683 7.41362C10.6805 7.16917 11.3352 7.04905 11.9943 7.06026C13.2966 7.08241 14.5381 7.61535 15.4512 8.54424C16.3643 9.47314 16.8759 10.7236 16.8757 12.0261C16.8756 13.3287 16.3636 14.579 15.4503 15.5076C14.5369 16.4362 13.2952 16.9688 11.9929 16.9906V16.9906ZM23.9999 28.9659C23.3429 28.9737 22.6908 28.851 22.0815 28.6049C21.4722 28.3589 20.9178 27.9943 20.4504 27.5324C19.983 27.0705 19.612 26.5204 19.3588 25.9141C19.1055 25.3077 18.9752 24.6571 18.9752 24C18.9753 23.3429 19.1057 22.6923 19.359 22.086C19.6123 21.4797 19.9835 20.9297 20.4509 20.4678C20.9184 20.006 21.4728 19.6415 22.0822 19.3956C22.6915 19.1496 23.3436 19.027 24.0006 19.0348C25.3073 19.0505 26.5552 19.5806 27.4736 20.5102C28.3921 21.4398 28.9071 22.6939 28.907 24.0007C28.9069 25.3075 28.3917 26.5616 27.4731 27.491C26.5545 28.4205 25.3066 28.9504 23.9999 28.9659V28.9659ZM36.0063 40.9264C35.3543 40.9265 34.7087 40.7981 34.1063 40.5487C33.5039 40.2992 32.9565 39.9336 32.4954 39.4726C32.0344 39.0116 31.6686 38.4643 31.4191 37.8619C31.1695 37.2595 31.0411 36.6139 31.0411 35.9619C31.0411 34.645 31.5643 33.382 32.4955 32.4507C33.4267 31.5195 34.6897 30.9964 36.0066 30.9964C37.3236 30.9964 38.5866 31.5195 39.5178 32.4507C40.449 33.382 40.9722 34.645 40.9722 35.9619C40.9721 36.6139 40.8436 37.2596 40.594 37.8619C40.3443 38.4643 39.9785 39.0116 39.5174 39.4726C39.0563 39.9336 38.5089 40.2993 37.9064 40.5487C37.304 40.7981 36.6583 40.9265 36.0063 40.9264ZM36.0063 16.9906C35.3543 16.9907 34.7087 16.8624 34.1063 16.6129C33.5039 16.3635 32.9565 15.9978 32.4954 15.5368C32.0344 15.0758 31.6686 14.5285 31.4191 13.9261C31.1695 13.3238 31.0411 12.6781 31.0411 12.0261C31.0411 10.7092 31.5643 9.4462 32.4955 8.51498C33.4267 7.58376 34.6897 7.06061 36.0066 7.06061C37.3236 7.06061 38.5866 7.58376 39.5178 8.51498C40.449 9.4462 40.9722 10.7092 40.9722 12.0261C40.9721 12.6782 40.8436 13.3238 40.594 13.9262C40.3443 14.5285 39.9785 15.0759 39.5174 15.5368C39.0563 15.9978 38.5089 16.3635 37.9064 16.6129C37.304 16.8624 36.6583 16.9907 36.0063 16.9906V16.9906Z" fill="#F5F5F5"/>
</svg>
