<svg width="48" height="48" viewBox="0 0 48 48" fill="none" xmlns="http://www.w3.org/2000/svg">
<path d="M47.9443 5.14732C47.9131 3.80339 47.3678 2.52259 46.4206 1.5687C45.4734 0.614802 44.1964 0.0604418 42.8528 0.0197884V0.0120239H5.14735V0.0176706C3.79681 0.0492456 2.51033 0.599825 1.5551 1.55506C0.599859 2.5103 0.0492797 3.79678 0.0177047 5.14732H0.0113525V42.8527H0.0177047C0.0487635 44.2034 0.599178 45.4902 1.55452 46.4456C2.50987 47.4009 3.79665 47.9513 5.14735 47.9824V47.988H42.8528V47.9817C44.2035 47.9506 45.4903 47.4002 46.4456 46.4449C47.4009 45.4895 47.9514 44.2027 47.9824 42.852H47.9888V5.14732H47.9443V5.14732ZM11.993 16.9906C11.3339 17.0016 10.6792 16.8813 10.0671 16.6367C9.45503 16.3921 8.89775 16.028 8.4278 15.5658C7.95784 15.1036 7.58462 14.5524 7.32988 13.9445C7.07515 13.3365 6.944 12.6839 6.9441 12.0247C6.94419 11.3655 7.07552 10.713 7.33043 10.1051C7.58533 9.4972 7.95872 8.94614 8.4288 8.48404C8.89889 8.02195 9.45627 7.65807 10.0684 7.41362C10.6806 7.16917 11.3353 7.04905 11.9944 7.06026C13.2968 7.08241 14.5383 7.61535 15.4514 8.54424C16.3645 9.47314 16.876 10.7236 16.8759 12.0261C16.8757 13.3287 16.3637 14.579 15.4504 15.5076C14.537 16.4362 13.2954 16.9688 11.993 16.9906V16.9906ZM23.9994 28.9659C23.3474 28.966 22.7017 28.8377 22.0993 28.5882C21.4969 28.3388 20.9496 27.9731 20.4885 27.5121C20.0274 27.0511 19.6617 26.5038 19.4121 25.9014C19.1626 25.2991 19.0342 24.6534 19.0342 24.0014C19.0342 23.3494 19.1626 22.7037 19.4122 22.1012C19.6617 21.4988 20.0275 20.9514 20.4885 20.4903C20.9496 20.0292 21.497 19.6634 22.0995 19.4139C22.7019 19.1643 23.3476 19.0359 23.9997 19.0359C24.6518 19.0359 25.2975 19.1643 25.8999 19.4139C26.5024 19.6634 27.0498 20.0292 27.5109 20.4903C27.972 20.9514 28.3377 21.4988 28.5873 22.1012C28.8368 22.7037 28.9652 23.3494 28.9652 24.0014C28.9651 24.6535 28.8366 25.2991 28.587 25.9015C28.3374 26.5038 27.9716 27.0511 27.5105 27.5121C27.0493 27.9731 26.5019 28.3388 25.8995 28.5882C25.2971 28.8377 24.6514 28.966 23.9994 28.9659V28.9659ZM36.0064 40.9264C35.3544 40.9265 34.7088 40.7981 34.1064 40.5487C33.504 40.2992 32.9566 39.9336 32.4955 39.4726C32.0345 39.0116 31.6687 38.4643 31.4192 37.8619C31.1697 37.2595 31.0412 36.6139 31.0412 35.9619C31.0412 34.645 31.5644 33.382 32.4956 32.4507C33.4268 31.5195 34.6898 30.9964 36.0068 30.9964C37.3237 30.9964 38.5867 31.5195 39.5179 32.4507C40.4491 33.382 40.9723 34.645 40.9723 35.9619C40.9722 36.6139 40.8437 37.2596 40.5941 37.8619C40.3445 38.4643 39.9787 39.0116 39.5175 39.4726C39.0564 39.9336 38.509 40.2993 37.9066 40.5487C37.3041 40.7981 36.6585 40.9265 36.0064 40.9264Z" fill="#F5F5F5"/>
</svg>
