<svg width="48" height="48" viewBox="0 0 48 48" fill="none" xmlns="http://www.w3.org/2000/svg">
<path d="M47.9443 5.14732C47.9131 3.80339 47.3678 2.52259 46.4206 1.5687C45.4734 0.614802 44.1964 0.0604418 42.8528 0.0197884V0.0120239H5.14735V0.0176706C3.79681 0.0492456 2.51033 0.599825 1.5551 1.55506C0.599859 2.5103 0.0492797 3.79678 0.0177047 5.14732H0.0113525V42.8527H0.0177047C0.0487635 44.2034 0.599178 45.4902 1.55452 46.4456C2.50987 47.4009 3.79665 47.9513 5.14735 47.9824V47.988H42.8528V47.9817C44.2035 47.9506 45.4903 47.4002 46.4456 46.4449C47.4009 45.4895 47.9514 44.2027 47.9824 42.852H47.9888V5.14732H47.9443V5.14732ZM11.993 16.9906C11.3359 16.9984 10.6839 16.8757 10.0746 16.6296C9.46526 16.3836 8.91086 16.019 8.44348 15.5571C7.97611 15.0952 7.60505 14.5451 7.35182 13.9388C7.09859 13.3324 6.96822 12.6818 6.96827 12.0247C6.96831 11.3676 7.09878 10.717 7.35209 10.1107C7.60541 9.5044 7.97654 8.95439 8.44398 8.49255C8.91143 8.03071 9.46588 7.66624 10.0752 7.42026C10.6845 7.17428 11.3366 7.05167 11.9937 7.05955C13.3004 7.07523 14.5482 7.60533 15.4667 8.53491C16.3851 9.4645 16.9001 10.7187 16.9 12.0254C16.8999 13.3322 16.3848 14.5863 15.4662 15.5157C14.5476 16.4452 13.2997 16.9751 11.993 16.9906V16.9906ZM36.0064 40.9257C35.3544 40.9258 34.7088 40.7974 34.1064 40.548C33.504 40.2985 32.9566 39.9329 32.4955 39.4719C32.0345 39.0109 31.6687 38.4635 31.4192 37.8612C31.1697 37.2588 31.0412 36.6132 31.0412 35.9612C31.0412 34.6443 31.5644 33.3813 32.4956 32.45C33.4268 31.5188 34.6898 30.9957 36.0068 30.9957C37.3237 30.9957 38.5867 31.5188 39.5179 32.45C40.4491 33.3813 40.9723 34.6443 40.9723 35.9612C40.9722 36.6132 40.8437 37.2589 40.5941 37.8612C40.3445 38.4636 39.9787 39.0109 39.5175 39.4719C39.0564 39.9329 38.509 40.2986 37.9066 40.548C37.3041 40.7974 36.6585 40.9258 36.0064 40.9257Z" fill="#0B2434"/>
</svg>
