<svg width="30" height="25" viewBox="0 0 30 25" fill="none" xmlns="http://www.w3.org/2000/svg">
<g clip-path="url(#clip0_2_263)">
<path d="M24.75 21.5H5.25C4.8375 21.5 4.5 21.8375 4.5 22.25V23.75C4.5 24.1625 4.8375 24.5 5.25 24.5H24.75C25.1625 24.5 25.5 24.1625 25.5 23.75V22.25C25.5 21.8375 25.1625 21.5 24.75 21.5ZM27.75 6.5C26.5078 6.5 25.5 7.50781 25.5 8.75C25.5 9.08281 25.575 9.39219 25.7063 9.67813L22.3125 11.7125C21.5906 12.1438 20.6578 11.9 20.2406 11.1688L16.4203 4.48438C16.9219 4.07188 17.25 3.45312 17.25 2.75C17.25 1.50781 16.2422 0.5 15 0.5C13.7578 0.5 12.75 1.50781 12.75 2.75C12.75 3.45312 13.0781 4.07188 13.5797 4.48438L9.75937 11.1688C9.34219 11.9 8.40469 12.1438 7.6875 11.7125L4.29844 9.67813C4.425 9.39688 4.50469 9.08281 4.50469 8.75C4.50469 7.50781 3.49687 6.5 2.25469 6.5C1.0125 6.5 0 7.50781 0 8.75C0 9.99219 1.00781 11 2.25 11C2.37188 11 2.49375 10.9812 2.61094 10.9625L6 20H24L27.3891 10.9625C27.5062 10.9812 27.6281 11 27.75 11C28.9922 11 30 9.99219 30 8.75C30 7.50781 28.9922 6.5 27.75 6.5Z" fill="#F19D43"/>
</g>
<defs>
<clipPath id="clip0_2_263">
<rect width="30" height="24" fill="white" transform="translate(0 0.5)"/>
</clipPath>
</defs>
</svg>
