<svg width="48" height="48" viewBox="0 0 48 48" fill="none" xmlns="http://www.w3.org/2000/svg">
<path d="M47.9443 5.14732C47.9131 3.80339 47.3678 2.52259 46.4206 1.5687C45.4734 0.614802 44.1964 0.0604418 42.8528 0.0197884V0.0120239H5.14735V0.0176706C3.79681 0.0492456 2.51033 0.599825 1.5551 1.55506C0.599859 2.5103 0.0492797 3.79678 0.0177047 5.14732H0.0113525V42.8527H0.0177047C0.0487635 44.2034 0.599178 45.4902 1.55452 46.4456C2.50987 47.4009 3.79665 47.9513 5.14735 47.9824V47.988H42.8528V47.9817C44.2035 47.9506 45.4903 47.4002 46.4456 46.4449C47.4009 45.4895 47.9514 44.2027 47.9824 42.852H47.9888V5.14732H47.9443V5.14732ZM11.993 40.7125C11.3359 40.7203 10.6839 40.5976 10.0746 40.3515C9.46526 40.1054 8.91086 39.7409 8.44348 39.279C7.97611 38.8171 7.60505 38.267 7.35182 37.6607C7.09859 37.0543 6.96822 36.4037 6.96827 35.7466C6.96831 35.0895 7.09878 34.4389 7.35209 33.8326C7.60541 33.2263 7.97654 32.6763 8.44398 32.2144C8.91143 31.7526 9.46588 31.3881 10.0752 31.1421C10.6845 30.8962 11.3366 30.7736 11.9937 30.7814C13.3004 30.7971 14.5482 31.3272 15.4667 32.2568C16.3851 33.1864 16.9001 34.4405 16.9 35.7473C16.8999 37.0541 16.3848 38.3082 15.4662 39.2376C14.5476 40.1671 13.2997 40.697 11.993 40.7125V40.7125ZM11.993 16.9906C11.3359 16.9984 10.6839 16.8757 10.0746 16.6296C9.46526 16.3836 8.91086 16.019 8.44348 15.5571C7.97611 15.0952 7.60505 14.5451 7.35182 13.9388C7.09859 13.3324 6.96822 12.6818 6.96827 12.0247C6.96831 11.3676 7.09878 10.717 7.35209 10.1107C7.60541 9.5044 7.97654 8.95439 8.44398 8.49255C8.91143 8.03071 9.46588 7.66624 10.0752 7.42026C10.6845 7.17428 11.3366 7.05167 11.9937 7.05955C13.3004 7.07523 14.5482 7.60533 15.4667 8.53491C16.3851 9.4645 16.9001 10.7187 16.9 12.0254C16.8999 13.3322 16.3848 14.5863 15.4662 15.5157C14.5476 16.4452 13.2997 16.9751 11.993 16.9906V16.9906ZM36.0064 40.9264C35.3544 40.9265 34.7088 40.7981 34.1064 40.5487C33.504 40.2992 32.9566 39.9336 32.4955 39.4726C32.0345 39.0116 31.6687 38.4643 31.4192 37.8619C31.1697 37.2595 31.0412 36.6139 31.0412 35.9619C31.0412 34.645 31.5644 33.382 32.4956 32.4507C33.4268 31.5195 34.6898 30.9964 36.0068 30.9964C37.3237 30.9964 38.5867 31.5195 39.5179 32.4507C40.4491 33.382 40.9723 34.645 40.9723 35.9619C40.9722 36.6139 40.8437 37.2596 40.5941 37.8619C40.3445 38.4643 39.9787 39.0116 39.5175 39.4726C39.0564 39.9336 38.509 40.2993 37.9066 40.5487C37.3041 40.7981 36.6585 40.9265 36.0064 40.9264ZM36.0064 16.9906C35.3544 16.9907 34.7088 16.8624 34.1064 16.6129C33.504 16.3635 32.9566 15.9978 32.4955 15.5368C32.0345 15.0758 31.6687 14.5285 31.4192 13.9261C31.1697 13.3238 31.0412 12.6781 31.0412 12.0261C31.0412 10.7092 31.5644 9.4462 32.4956 8.51498C33.4268 7.58376 34.6898 7.06061 36.0068 7.06061C37.3237 7.06061 38.5867 7.58376 39.5179 8.51498C40.4491 9.4462 40.9723 10.7092 40.9723 12.0261C40.9722 12.6782 40.8437 13.3238 40.5941 13.9262C40.3445 14.5285 39.9787 15.0759 39.5175 15.5368C39.0564 15.9978 38.509 16.3635 37.9066 16.6129C37.3041 16.8624 36.6585 16.9907 36.0064 16.9906V16.9906Z" fill="#59E391"/>
</svg>
