<svg width="48" height="48" viewBox="0 0 48 48" fill="none" xmlns="http://www.w3.org/2000/svg">
<path d="M47.9443 5.14732C47.9131 3.80339 47.3678 2.52259 46.4206 1.5687C45.4734 0.614802 44.1964 0.0604418 42.8528 0.0197884V0.0120239H5.14735V0.0176706C3.79681 0.0492456 2.51033 0.599825 1.5551 1.55506C0.599859 2.5103 0.0492797 3.79678 0.0177047 5.14732H0.0113525V42.8527H0.0177047C0.0487635 44.2034 0.599178 45.4902 1.55452 46.4456C2.50987 47.4009 3.79665 47.9513 5.14735 47.9824V47.988H42.8528V47.9817C44.2035 47.9506 45.4903 47.4002 46.4456 46.4449C47.4009 45.4895 47.9514 44.2027 47.9824 42.852H47.9888V5.14732H47.9443V5.14732ZM24.0001 29.3796C23.2864 29.3911 22.5775 29.2605 21.9148 28.9954C21.2521 28.7303 20.6487 28.3359 20.1399 27.8353C19.6312 27.3347 19.2271 26.7378 18.9513 26.0795C18.6754 25.4212 18.5334 24.7145 18.5334 24.0007C18.5334 23.2869 18.6754 22.5803 18.9513 21.922C19.2271 21.2636 19.6312 20.6668 20.1399 20.1661C20.6487 19.6655 21.2521 19.2712 21.9148 19.006C22.5775 18.7409 23.2864 18.6103 24.0001 18.6219C25.4115 18.6448 26.7574 19.2215 27.7475 20.2278C28.7376 21.234 29.2924 22.5891 29.2924 24.0007C29.2924 25.4124 28.7376 26.7675 27.7475 27.7737C26.7574 28.7799 25.4115 29.3567 24.0001 29.3796V29.3796Z" fill="#F5F5F5"/>
</svg>
