<svg width="48" height="48" viewBox="0 0 48 48" fill="none" xmlns="http://www.w3.org/2000/svg">
<path d="M47.9442 5.14732C47.913 3.80339 47.3676 2.52259 46.4204 1.5687C45.4732 0.614802 44.1963 0.0604418 42.8526 0.0197884V0.0120239H5.14723V0.0176706C3.79669 0.0492456 2.51021 0.599825 1.55497 1.55506C0.599737 2.5103 0.0491577 3.79678 0.0175826 5.14732H0.0112305V42.8527H0.0175826C0.0486414 44.2034 0.599056 45.4902 1.5544 46.4456C2.50975 47.4009 3.79652 47.9513 5.14723 47.9824V47.988H42.8526V47.9817C44.2033 47.9506 45.4901 47.4002 46.4455 46.4449C47.4008 45.4895 47.9512 44.2027 47.9823 42.852H47.9886V5.14732H47.9442V5.14732ZM11.9929 40.7125C11.3358 40.7203 10.6837 40.5976 10.0744 40.3515C9.46514 40.1054 8.91074 39.7409 8.44336 39.279C7.97598 38.8171 7.60493 38.267 7.3517 37.6607C7.09847 37.0543 6.9681 36.4037 6.96814 35.7466C6.96819 35.0895 7.09865 34.4389 7.35197 33.8326C7.60529 33.2263 7.97642 32.6763 8.44386 32.2144C8.9113 31.7526 9.46576 31.3881 10.0751 31.1421C10.6844 30.8962 11.3365 30.7736 11.9936 30.7814C13.3003 30.7971 14.5481 31.3272 15.4666 32.2568C16.385 33.1864 16.9 34.4405 16.8999 35.7473C16.8998 37.0541 16.3846 38.3082 15.4661 39.2376C14.5475 40.1671 13.2996 40.697 11.9929 40.7125V40.7125ZM11.9929 28.9659C11.3358 28.9737 10.6837 28.851 10.0744 28.6049C9.46514 28.3589 8.91074 27.9943 8.44336 27.5324C7.97598 27.0705 7.60493 26.5204 7.3517 25.9141C7.09847 25.3077 6.9681 24.6571 6.96814 24C6.96819 23.3429 7.09865 22.6923 7.35197 22.086C7.60529 21.4797 7.97642 20.9297 8.44386 20.4678C8.9113 20.006 9.46576 19.6415 10.0751 19.3956C10.6844 19.1496 11.3365 19.027 11.9936 19.0348C13.3003 19.0505 14.5481 19.5806 15.4666 20.5102C16.385 21.4398 16.9 22.6939 16.8999 24.0007C16.8998 25.3075 16.3846 26.5616 15.4661 27.491C14.5475 28.4205 13.2996 28.9504 11.9929 28.9659V28.9659ZM11.9929 16.9906C11.3358 16.9984 10.6837 16.8757 10.0744 16.6296C9.46514 16.3836 8.91074 16.019 8.44336 15.5571C7.97598 15.0952 7.60493 14.5451 7.3517 13.9388C7.09847 13.3324 6.9681 12.6818 6.96814 12.0247C6.96819 11.3676 7.09865 10.717 7.35197 10.1107C7.60529 9.5044 7.97642 8.95439 8.44386 8.49255C8.9113 8.03071 9.46576 7.66624 10.0751 7.42026C10.6844 7.17428 11.3365 7.05167 11.9936 7.05955C13.3003 7.07523 14.5481 7.60533 15.4666 8.53491C16.385 9.4645 16.9 10.7187 16.8999 12.0254C16.8998 13.3322 16.3846 14.5863 15.4661 15.5157C14.5475 16.4452 13.2996 16.9751 11.9929 16.9906V16.9906ZM36.0063 40.9264C35.3543 40.9265 34.7087 40.7981 34.1063 40.5487C33.5039 40.2992 32.9565 39.9336 32.4954 39.4726C32.0344 39.0116 31.6686 38.4643 31.4191 37.8619C31.1695 37.2595 31.0411 36.6139 31.0411 35.9619C31.0411 34.645 31.5643 33.382 32.4955 32.4507C33.4267 31.5195 34.6897 30.9964 36.0066 30.9964C37.3236 30.9964 38.5866 31.5195 39.5178 32.4507C40.449 33.382 40.9722 34.645 40.9722 35.9619C40.9721 36.6139 40.8436 37.2596 40.594 37.8619C40.3443 38.4643 39.9785 39.0116 39.5174 39.4726C39.0563 39.9336 38.5089 40.2993 37.9064 40.5487C37.304 40.7981 36.6583 40.9265 36.0063 40.9264ZM36.007 28.9659C35.3499 28.9737 34.6979 28.851 34.0886 28.6049C33.4793 28.3589 32.9249 27.9943 32.4575 27.5324C31.9901 27.0705 31.619 26.5204 31.3658 25.9141C31.1126 25.3077 30.9822 24.6571 30.9823 24C30.9823 23.3429 31.1128 22.6923 31.3661 22.086C31.6194 21.4797 31.9905 20.9297 32.458 20.4678C32.9254 20.006 33.4799 19.6415 34.0892 19.3956C34.6985 19.1496 35.3506 19.027 36.0077 19.0348C37.3144 19.0505 38.5622 19.5806 39.4807 20.5102C40.3991 21.4398 40.9141 22.6939 40.914 24.0007C40.9139 25.3075 40.3987 26.5616 39.4802 27.491C38.5616 28.4205 37.3137 28.9504 36.007 28.9659V28.9659ZM36.0063 16.9906C35.3543 16.9907 34.7087 16.8624 34.1063 16.6129C33.5039 16.3635 32.9565 15.9978 32.4954 15.5368C32.0344 15.0758 31.6686 14.5285 31.4191 13.9261C31.1695 13.3238 31.0411 12.6781 31.0411 12.0261C31.0411 10.7092 31.5643 9.4462 32.4955 8.51498C33.4267 7.58376 34.6897 7.06061 36.0066 7.06061C37.3236 7.06061 38.5866 7.58376 39.5178 8.51498C40.449 9.4462 40.9722 10.7092 40.9722 12.0261C40.9721 12.6782 40.8436 13.3238 40.594 13.9262C40.3443 14.5285 39.9785 15.0759 39.5174 15.5368C39.0563 15.9978 38.5089 16.3635 37.9064 16.6129C37.304 16.8624 36.6583 16.9907 36.0063 16.9906Z" fill="#F5F5F5"/>
</svg>
